<svg version="1.0" xmlns="http://www.w3.org/2000/svg" width="800.000000" height="800.000000"
  viewBox="0 0 800.000000 800.000000" preserveAspectRatio="xMidYMid meet">
  <metadata>
    <rdf:RDF xmlns:rdf="http://www.w3.org/1999/02/22-rdf-syntax-ns#"
      xmlns:rdfs="http://www.w3.org/2000/01/rdf-schema#" xmlns:dc="http://purl.org/dc/elements/1.1/">
      <rdf:Description dc:format="image/svg+xml" dc:Label="1"
        dc:ContentProducer="001191330110MACRLGPT8B00000" dc:ProduceID="372327795"
        dc:ReservedCode1="gcONEfTIMwOcRvL1PoUeIrm46JDS4l5V1sSn92t93bw="
        dc:ContentPropagator="001191330110MACRLGPT8B00000" dc:PropagateID="372327795"
        dc:ReservedCode2="gcONEfTIMwOcRvL1PoUeIrm46JDS4l5V1sSn92t93bw=" />
    </rdf:RDF>
  </metadata>
  <g transform="translate(0.000000,800.000000) scale(0.100000,-0.100000)" fill="#000000"
    stroke="none">
    <path
      d="M4725 5702 c-6 -5 -29 -15 -53 -22 -154 -48 -226 -254 -136 -392 l23 -37 -82 -44 c-197 -107 -305 -147 -478 -176 -179 -31 -331 -36 -494 -17 -253 29 -386 36 -505 26 -548 -48 -1034 -363 -1240 -802 -158 -338 -183 -733 -69 -1103 70 -226 154 -359 311 -490 42 -36 93 -89 113 -119 53 -79 144 -160 212 -188 58 -23 61 -23 555 -26 557 -3 551 -4 583 63 35 74 1 191 -81 281 -19 20 -34 38 -34 39 0 1 21 19 47 39 l46 36 334 0 c309 0 334 -1 340 -17 3 -10 23 -56 45 -102 54 -113 160 -222 268 -275 125 -61 156 -66 435 -66 241 0 251 1 290 23 29 16 45 35 59 70 26 61 21 79 -82 312 -44 99 -92 218 -107 265 l-28 86 56 93 c62 103 107 210 130 316 9 39 25 111 36 160 12 54 37 121 61 167 46 90 48 107 17 143 -29 34 -86 38 -118 9 -47 -42 -113 -207 -135 -339 -28 -167 -62 -255 -146 -388 -28 -42 -54 -94 -58 -114 -16 -70 18 -184 136 -459 41 -93 74 -173 74 -177 0 -4 -84 -7 -187 -7 -269 0 -337 19 -451 125 -62 57 -127 164 -153 253 -25 85 -6 82 -479 82 l-417 0 -64 -56 c-76 -69 -177 -118 -269 -134 -55 -9 -74 -17 -90 -37 -31 -39 -26 -86 11 -118 28 -23 37 -25 77 -19 25 4 72 15 105 25 l60 18 31 -27 c38 -33 74 -74 82 -96 6 -15 -33 -16 -417 -16 -372 0 -429 2 -477 17 -64 20 -115 64 -171 148 -22 33 -76 89 -118 125 -92 78 -162 162 -199 239 -69 145 -112 301 -135 488 -22 184 22 451 105 643 144 333 468 594 867 699 208 55 344 60 667 25 252 -27 509 -14 718 36 146 34 287 95 489 209 121 69 176 84 301 82 208 -2 435 -83 810 -291 320 -177 426 -278 470 -450 48 -189 -72 -367 -270 -398 -74 -12 -129 -1 -220 43 -79 39 -110 40 -142 4 -25 -28 -22 -85 7 -115 49 -53 203 -103 314 -104 167 0 360 112 430 250 55 109 69 251 36 375 -63 242 -233 390 -741 646 -179 90 -230 111 -358 150 -72 22 -234 59 -257 59 -2 0 -2 35 -1 78 1 68 -2 83 -28 129 -39 70 -116 124 -186 131 -27 2 -50 8 -50 13 0 11 -13 12 -25 1z m70 -186 c40 -17 55 -42 55 -91 0 -51 -44 -95 -95 -95 -100 0 -131 146 -40 186 38 17 39 17 80 0z" />
    <path d="M5322 4850 c-114 -26 -130 -175 -25 -225 109 -52 219 86 145 182 -24 32 -80 51 -120 43z" />
  </g>
</svg>